<svg xmlns="http://www.w3.org/2000/svg" fill="none" width="429" height="70.029614394885" viewBox="0 0 396.9634880929813 64.80000000000001"><g id="SvgjsG1726" featurekey="nameLeftFeature-0" transform="matrix(2.9916898376290177,0,0,2.9916898376290177,0,-5.873126005147331)" fill="#65558F"><path d="M5.48 20.04 l-2.04 0 l-1.1 -3.02 l-0.44 0 l0 3.02 l-1.9 0 l0 -14.32 l2.98 0 c1.32 0 2.38 1.06 2.38 2.38 l0 6.54 c0 0.86 -0.44 1.6 -1.12 2.02 z M1.9 7.619999999999999 l0 7.5 l1.08 0 c0.26 0 0.48 -0.22 0.48 -0.48 l0 -6.54 c0 -0.26 -0.22 -0.48 -0.48 -0.48 l-1.08 0 z M13.2545 20 l-0.72 -4.94 l-2.02 0 l-0.66 4.94 l-1.92 0 l2.16 -14.3 l2.58 0 l2.5 14.3 l-1.92 0 z M10.7745 13.16 l1.48 0 l-0.76 -5.2 z M22.589 16.72 l0.08 -11.08 l1.92 0 l-0.12 14.44 l-2.98 0 l-1.62 -11.18 l0 11.18 l-1.92 0 l0 -14.44 l3.1 0 z M29.8635 20.02 l-2.5 0 l0 -14.26 l2.5 0 c1.7 0 3.06 1.38 3.06 3.08 l0 8.1 c0 0.82 -0.32 1.6 -0.9 2.18 s-1.34 0.9 -2.16 0.9 z M29.263499999999997 7.68 l0 10.42 l0.6 0 c0.3 0 0.6 -0.12 0.82 -0.34 s0.34 -0.5 0.34 -0.82 l0 -8.1 c0 -0.64 -0.52 -1.16 -1.16 -1.16 l-0.6 0 z M38.398 20.02 c-1.5 0 -2.7 -1.22 -2.7 -2.7 l0 -8.98 c0 -1.48 1.2 -2.68 2.7 -2.68 c1.48 0 2.68 1.2 2.68 2.68 l0 8.98 c0 1.48 -1.2 2.7 -2.68 2.7 z M38.398 7.5600000000000005 c-0.44 0 -0.78 0.36 -0.78 0.78 l0 8.98 c0 0.44 0.34 0.78 0.78 0.78 c0.42 0 0.78 -0.34 0.78 -0.78 l0 -8.98 c0 -0.42 -0.36 -0.78 -0.78 -0.78 z M49.652499999999996 5.68 l3.34 0 l0 14.28 l-1.88 0 l0 -11.3 l-1.78 11.34 l-0.74 0 l-0.18 -0.04 l-0.16 0.04 l-0.74 0 l-1.76 -11.34 l0 11.3 l-1.9 0 l0 -14.28 l3.36 0 l1.22 8.08 z"></path></g><g id="SvgjsG1727" featurekey="inlineSymbolFeature-0" transform="matrix(1.14295532424079,0,0,1.14295532424079,158.4712720948484,-24.748265435308483)" fill="#65558F"><path xmlns="http://www.w3.org/2000/svg" d="M77.472,53.032c3.464-4.955,5.281-11.078,4.308-17.112c-0.741-4.591-3.311-9.854-7.616-12.096  c-5.892-3.067-13.721-3-19.206,0.941c-1.745,1.253-3.23,2.862-4.373,4.679c-0.138,0.219-0.363,0.542-0.584,0.885  c-0.22-0.343-0.446-0.666-0.584-0.885c-1.143-1.817-2.629-3.426-4.373-4.679c-5.486-3.941-13.314-4.008-19.206-0.941  c-4.306,2.242-6.876,7.504-7.616,12.096c-0.973,6.034,0.844,12.157,4.308,17.112c1.021,1.461,2.177,2.825,3.431,4.091  c13.81,13.949,24.049,21.225,24.049,21.225c0.162-0.115,10.223-7.275,24.033-21.225C75.294,55.857,76.451,54.492,77.472,53.032z   M77.762,47.375l-1.549-0.671c0.67-1.545,1.137-3.128,1.389-4.706l1.666,0.265C78.994,43.982,78.487,45.702,77.762,47.375z   M79.28,36.322c0.153,0.953,0.232,1.93,0.232,2.905c0,0.42-0.014,0.841-0.042,1.263l-1.684-0.114  c0.026-0.384,0.039-0.767,0.039-1.15c0-0.885-0.071-1.772-0.21-2.635c-0.056-0.347-0.126-0.703-0.211-1.062l1.643-0.386  C79.14,35.542,79.218,35.936,79.28,36.322z M78.549,33.42l-1.597,0.546c-0.557-1.631-1.337-3.105-2.255-4.262l1.322-1.05  C77.055,29.96,77.93,31.608,78.549,33.42z M69.874,24.835c1.092,0.308,2.142,0.723,3.121,1.234c0.608,0.317,1.201,0.732,1.758,1.232  l-1.126,1.257c-0.454-0.406-0.93-0.741-1.413-0.993c-0.878-0.457-1.819-0.83-2.799-1.106L69.874,24.835z M56.433,26.822  c1.319-0.948,2.847-1.655,4.544-2.105l0.432,1.632c-1.497,0.396-2.84,1.016-3.99,1.843l-0.303,0.226l-1.028-1.338L56.433,26.822z   M52.738,30.775c0.56-0.89,1.229-1.733,1.982-2.491l1.198,1.19c-0.666,0.67-1.258,1.415-1.761,2.214l-1.155,1.776l-1.421-0.911  L52.738,30.775z M50,35.015l0.657-1.023l1.421,0.911L50,38.14l-2.077-3.237l1.421-0.911L50,35.015z M45.241,28.245  c0.77,0.768,1.454,1.625,2.034,2.547l1.118,1.717l-1.421,0.911l-1.117-1.716c-0.522-0.83-1.126-1.587-1.806-2.265L45.241,28.245z   M38.971,24.703c1.717,0.447,3.264,1.159,4.596,2.117l0.307,0.228l-1.032,1.337l-0.26-0.193c-1.164-0.837-2.522-1.461-4.038-1.856  L38.971,24.703z M27.006,26.069c0.964-0.502,1.995-0.911,3.065-1.218l0.465,1.622c-0.962,0.276-1.887,0.644-2.75,1.093  c-0.499,0.261-0.987,0.606-1.45,1.027l-1.134-1.249C25.77,26.827,26.378,26.398,27.006,26.069z M23.945,28.7l1.327,1.043  c-0.915,1.163-1.69,2.64-2.241,4.273l-1.599-0.541C22.044,31.664,22.914,30.012,23.945,28.7z M20.489,39.227  c0-0.979,0.077-1.956,0.231-2.905c0.059-0.368,0.133-0.742,0.222-1.122l1.643,0.384c-0.079,0.34-0.146,0.677-0.199,1.007  c-0.139,0.86-0.209,1.747-0.209,2.636c0,0.4,0.014,0.803,0.042,1.205l-1.683,0.119C20.505,40.109,20.489,39.667,20.489,39.227z   M22.267,47.436c-0.731-1.67-1.243-3.388-1.524-5.108l1.666-0.271c0.257,1.58,0.729,3.162,1.403,4.702L22.267,47.436z   M24.603,51.581c-0.575-0.823-1.101-1.681-1.562-2.549l1.49-0.793c0.43,0.808,0.92,1.607,1.457,2.376  c0.405,0.583,0.847,1.158,1.318,1.724L26.01,53.42C25.506,52.816,25.036,52.202,24.603,51.581z M30.83,58.394  c-1.002-0.978-2.027-1.997-3.072-3.053c-0.198-0.2-0.391-0.401-0.581-0.604l1.231-1.154c0.18,0.191,0.363,0.382,0.55,0.572  c1.037,1.049,2.056,2.059,3.051,3.032L30.83,58.394z M35.805,63.128c-1.199-1.111-2.45-2.29-3.744-3.538l1.172-1.215  c1.285,1.239,2.526,2.41,3.719,3.514L35.805,63.128z M32.115,26.11l-0.292-1.663c1.764-0.311,3.614-0.351,5.375-0.1l-0.237,1.671  C35.376,25.792,33.707,25.829,32.115,26.11z M40.914,67.72c-1.203-1.049-2.487-2.193-3.843-3.431l1.137-1.246  c1.346,1.229,2.622,2.364,3.815,3.407L40.914,67.72z M46.163,72.156c-1.158-0.944-2.483-2.049-3.952-3.31l1.099-1.281  c1.458,1.252,2.771,2.346,3.919,3.282L46.163,72.156z M50.525,74.802l-0.514,0.395l-0.514-0.396  c-0.558-0.429-1.227-0.953-1.998-1.568l1.053-1.318c0.538,0.429,1.026,0.813,1.461,1.152c0.434-0.337,0.922-0.721,1.46-1.15  l1.053,1.318C51.755,73.851,51.085,74.374,50.525,74.802z M53.905,72.123l-1.066-1.307c1.145-0.935,2.457-2.03,3.914-3.285  l1.101,1.279C56.386,70.076,55.062,71.179,53.905,72.123z M59.15,67.684l-1.111-1.271c1.189-1.041,2.463-2.178,3.809-3.41  l1.139,1.244C61.631,65.49,60.349,66.635,59.15,67.684z M62.746,24.356c1.76-0.257,3.608-0.222,5.374,0.082l-0.287,1.663  c-1.59-0.276-3.262-0.307-4.845-0.076L62.746,24.356z M64.251,63.085l-1.149-1.238c1.189-1.103,2.429-2.274,3.715-3.516l1.172,1.213  C66.695,60.794,65.447,61.974,64.251,63.085z M72.242,55.343c-1.03,1.04-2.039,2.042-3.023,3.005l-1.18-1.206  c0.977-0.957,1.979-1.952,3.004-2.987c0.203-0.204,0.4-0.41,0.593-0.618l1.236,1.15C72.666,54.908,72.457,55.126,72.242,55.343z   M72.734,52.29c0.457-0.55,0.884-1.11,1.279-1.675c0.55-0.787,1.05-1.604,1.487-2.429l1.491,0.789  c-0.469,0.886-1.005,1.763-1.594,2.606c-0.42,0.602-0.877,1.2-1.364,1.786L72.734,52.29z"></path></g><g id="SvgjsG1728" featurekey="nameRightFeature-0" transform="matrix(2.930800588250137,0,0,2.930800588250137,255.07609371370748,-4.767710295218494)" fill="#65558F"><path d="M13.6145 5.720000000000001 l1.92 0 l-1.86 14.28 l-1.98 0 l-1 -7.16 l-0.94 7.16 l-1.98 0 l-2 -14.28 l1.92 0 l1.04 7.36 l0.96 -7.36 l1.92 0 l1.04 7.36 z M21.008999999999997 20.02 c-1.5 0 -2.7 -1.22 -2.7 -2.7 l0 -8.98 c0 -1.48 1.2 -2.68 2.7 -2.68 c1.48 0 2.68 1.2 2.68 2.68 l0 8.98 c0 1.48 -1.2 2.7 -2.68 2.7 z M21.008999999999997 7.5600000000000005 c-0.44 0 -0.78 0.36 -0.78 0.78 l0 8.98 c0 0.44 0.34 0.78 0.78 0.78 c0.42 0 0.78 -0.34 0.78 -0.78 l0 -8.98 c0 -0.42 -0.36 -0.78 -0.78 -0.78 z M31.943499999999997 20.04 l-2.04 0 l-1.1 -3.02 l-0.44 0 l0 3.02 l-1.9 0 l0 -14.32 l2.98 0 c1.32 0 2.38 1.06 2.38 2.38 l0 6.54 c0 0.86 -0.44 1.6 -1.12 2.02 z M28.363499999999995 7.619999999999999 l0 7.5 l1.08 0 c0.26 0 0.48 -0.22 0.48 -0.48 l0 -6.54 c0 -0.26 -0.22 -0.48 -0.48 -0.48 l-1.08 0 z M38.977999999999994 19.92 l-2.1 -7.88 l-0.3 0.5 l0 7.44 l-1.86 0 l0 -14.26 l1.86 0 l0 3.1 l1.24 -3.1 l2.3 0 l-1.9 4.12 l2.7 10.08 l-1.94 0 z M45.692499999999995 20.12 c-1.52 0 -2.74 -1.24 -2.74 -2.74 l0 -2.18 l1.94 0 l0 2.18 c0 0.44 0.36 0.8 0.8 0.8 s0.78 -0.36 0.78 -0.8 l0 -1.9 l-3.52 -4.86 l0 -2.48 c0 -1.52 1.22 -2.76 2.74 -2.76 c1.5 0 2.72 1.24 2.72 2.76 l0 2.16 l-1.94 0 l0 -2.16 c0 -0.46 -0.34 -0.8 -0.78 -0.8 s-0.8 0.34 -0.8 0.8 l0 1.82 l3.52 4.86 l0 2.56 c0 1.5 -1.22 2.74 -2.72 2.74 z"></path></g></svg>